<?xml version="1.0" ?><svg height="64" viewBox="0 0 64 64" width="64" xmlns="http://www.w3.org/2000/svg"><title/><g data-name="set-016@doctor-asian-female" id="ba996608-1b7c-4388-b6e0-cd0b095509fd"><g data-name="doctor-asian-female" id="b59b6dcd-e94d-4cdb-9025-cf0425004605"><g data-name="doctor-asian-female-2" id="ae564431-46a1-45fc-875a-6c04dc5aa94a"><g data-name="Icons" id="a4607b32-6a49-49ff-aa25-d9d63fe8951f"><path d="M51,42.814l-10.9-3.42h-16l-10.93,3.42a5.332,5.332,0,0,0-3.7,4.43L9,50.944c7,3.11,15.43,4.44,23.1,4.44s16.09-1.33,23.1-4.44l-.46-3.7A5.34,5.34,0,0,0,51,42.814Z" fill="#e0ebee"/><path d="M55.21,50.944,55,48.864a5.505,5.505,0,0,0-3.17-2.5l-11.41-3.42H23.8l-11.36,3.42a5.47,5.47,0,0,0-3.17,2.5L9,50.944c7,3.11,15.43,4.44,23.1,4.44S48.19,54.064,55.21,50.944Z" fill="#cedde1"/><path d="M28.49,55.284c-.51-1-4.38-8.42-4.39-15.88h0l-3.41,1.06-2.81,5.67,4.44,2.67-2,5.55A68.964,68.964,0,0,0,28.49,55.284Z" fill="#eaf2f3"/><polyline fill="none" points="20.7 40.464 17.89 46.124 22.33 48.794 20.34 54.344" stroke="#c5d5d8" stroke-linejoin="round" stroke-width="0.889"/><path d="M35.71,55.284c.51-1,4.38-8.42,4.39-15.88h0l3.41,1.06,2.81,5.67L41.88,48.8l2,5.55A68.755,68.755,0,0,1,35.71,55.284Z" fill="#eaf2f3"/><polyline fill="none" points="43.51 40.464 46.32 46.124 41.88 48.794 43.86 54.344" stroke="#c5d5d8" stroke-linejoin="round" stroke-width="0.889"/><path d="M24.11,39.394c0,8,4.44,16,4.44,16h7.11s4.44-8,4.44-16Z" fill="#96c8e2" stroke="#343433" stroke-linejoin="round" stroke-width="1.5"/><path d="M40.1,39.394,51,42.814a5.332,5.332,0,0,1,3.7,4.43l.46,3.7c-7,3.11-15.43,4.44-23.1,4.44S16,54.064,9,50.944l.46-3.7a5.361,5.361,0,0,1,3.7-4.43l10.94-3.42" fill="none" stroke="#343433" stroke-linejoin="round" stroke-width="1.333"/><circle cx="32.1" cy="48.084" fill="#333" r="0.75"/><circle cx="32.1" cy="51.584" fill="#333" r="0.75"/><path d="M45.25,19a7.347,7.347,0,0,1,.85,3.22,10.979,10.979,0,0,1-.1,1.69,8.473,8.473,0,0,0-.74-5.67v.3Z" fill="#333"/><rect fill="#e6b790" height="11.52" width="12.78" x="25.8" y="31.204"/><path d="M25.8,34.624l6.05,5.73A4.322,4.322,0,0,1,33,43.264a2.872,2.872,0,0,0,.11.72h5.5V31.2H25.8Z" fill="#ddad8a"/><rect fill="none" height="11.52" stroke="#333" stroke-linejoin="round" stroke-width="1.5" width="12.78" x="25.8" y="31.204"/><path d="M41.64,27.514l-.55,3a6.505,6.505,0,0,1-2.38,3.93l-2.56,2a6.471,6.471,0,0,1-8,0l-2.56-2a6.47,6.47,0,0,1-2.37-3.92l-.55-3c-1.84-.08-2.77-2.06-3-4-.28-2.29.76-4,2.49-4v-2c0-5.41,2-10.51,10-10.51s10,5.09,10,10.51v2c1.73,0,2.79,1.71,2.51,4-.26,1.91-1.23,3.86-3,4Z" fill="#efc8a5"/><path d="M42.25,19.354v-2c0-5.41-2-10.51-10-10.51s-10,5.1-10,10.51v2c-1.73,0-2.77,1.71-2.49,4,.24,1.94,1.16,3.92,3,4l.56,3a6.465,6.465,0,0,0,2.37,3.93l.24.18c-4.85-15.93,7.88-16.62,10-20,.91,2.73,7.13,5.13,8.53,10.06a7.544,7.544,0,0,0,.25-1.17C45,21.064,44,19.354,42.25,19.354Z" fill="#e6b790"/><circle cx="27.17" cy="23.924" fill="#ddad8a" r="3.5"/><path d="M24.71,24.824a3.479,3.479,0,0,0,.73,2.12,3.48,3.48,0,0,0,4.5-5.14,3.47,3.47,0,0,0-5.23,3Z" fill="#e6b790"/><path d="M42.13,19.524v-2c0-5.41-2-10.51-10-10.51a14.7,14.7,0,0,0-2.77.24v10.37A3.9,3.9,0,0,1,28.1,20.5a.45.45,0,0,0,.2.77,2.582,2.582,0,0,1,1.88,1.88.49.49,0,0,0,.583.375.5.5,0,0,0,.187-.085,1.763,1.763,0,0,1,.58-.32.49.49,0,0,1,.595.355.528.528,0,0,1,.015.125v2.07a1.11,1.11,0,0,0,.62.94c.57.32.16,1.4-.62,1.4h0a1.686,1.686,0,0,1-.89-.23c-.74-.37-1.43.39-1.27.68s.34,0,1.08.35a2.658,2.658,0,0,0,1.1.27v3.68a.4.4,0,0,0,.31.38c1.31.31,2,2.49-.31,3h0a1.241,1.241,0,0,0-1,1.2v.45a6.507,6.507,0,0,0,5-1.3l2.56-2a6.53,6.53,0,0,0,2.38-3.93l.55-3h0c1.8-.12,2.77-2.08,3-4C44.92,21.234,43.86,19.524,42.13,19.524Z" fill="#e6b790"/><path d="M42.2,19.354c0-.1-.41-.11-1-.1.41,6.73-.56,8.27-.56,11.28l1.06-3.19h0c1.79-.12,2.77-2.08,3-4C45,21.064,43.92,19.354,42.2,19.354Z" fill="#ddad8a"/><path d="M44.2,20.494a2.309,2.309,0,0,0-2-1.14.43.43,0,0,0,0-.16v-1.84a14.9,14.9,0,0,0-.7-4.83c-1-3-3.3-5.23-7.86-5.62q-.641-.06-1.44-.06a11.329,11.329,0,0,0-1.45.06h-.23a6.338,6.338,0,0,0-1.08.15h0v10.4a3.8,3.8,0,0,1-.36,1.62c2.7-2.1,5.86-3.08,6.85-4.61.91,2.73,7.13,5.13,8.53,10.06q.09-.29.15-.57c0-.2.08-.4.1-.6A4.386,4.386,0,0,0,44.2,20.494Z" fill="#ddad8a"/><circle cx="37.11" cy="23.924" fill="#ddad8a" r="3.5"/><path d="M34.64,24.824a3.479,3.479,0,0,0,.73,2.12,3.48,3.48,0,0,0,4.5-5.14,3.47,3.47,0,0,0-5.23,3Z" fill="#e6b790"/><path d="M30.09,29c1,0,1,.51,2,.51s1-.51,2-.51" fill="none" stroke="#ddad8a" stroke-linecap="round" stroke-miterlimit="10" stroke-width="0.65"/><line fill="none" stroke="#ddad8a" stroke-linecap="round" stroke-miterlimit="10" stroke-width="0.65" x1="32.09" x2="32.09" y1="29.374" y2="30.114"/><path d="M41.64,27.514l-.55,3a6.505,6.505,0,0,1-2.38,3.93l-2.56,2a6.471,6.471,0,0,1-8,0l-2.56-2a6.47,6.47,0,0,1-2.37-3.92l-.55-3c-1.84-.08-2.77-2.06-3-4-.28-2.29.76-4,2.49-4v-2c0-5.41,2-10.51,10-10.51s10,5.09,10,10.51v2c1.73,0,2.79,1.71,2.51,4-.26,1.91-1.23,3.86-3,4Z" fill="none" stroke="#333" stroke-linejoin="round" stroke-width="1.5"/><path d="M29.48,24c-.58-.33-2.07-2.25-4-.33a2.445,2.445,0,0,1-.67-.46,4.118,4.118,0,0,1,3-.28" fill="#333" stroke="#333" stroke-linecap="round" stroke-miterlimit="10" stroke-width="0.504"/><path d="M34.93,24c.58-.33,2.07-2.25,4-.33a2.445,2.445,0,0,0,.67-.46,4.118,4.118,0,0,0-3-.28" fill="#333" stroke="#333" stroke-linecap="round" stroke-miterlimit="10" stroke-width="0.504"/><circle cx="27.17" cy="23.924" fill="none" r="3.5" stroke="#333" stroke-linejoin="round" stroke-width="1.167"/><circle cx="37.11" cy="23.924" fill="none" r="3.5" stroke="#333" stroke-linejoin="round" stroke-width="1.167"/><path d="M33.64,23.434a4.608,4.608,0,0,0-1.54-.34,4.687,4.687,0,0,0-1.46.31" fill="none" stroke="#333" stroke-linejoin="round"/><circle cx="27.95" cy="25.454" fill="#efc8a5" r="0.62"/><circle cx="38.36" cy="25.454" fill="#efc8a5" r="0.62"/><path d="M46.62,22.264a10.563,10.563,0,0,0-1.41-4.32,13.37,13.37,0,0,0-13-12.23c-6.78,0-12.28,4.29-12.62,11.79-1.83,4.15.78,10.16,1.65,17h3c-5-16.61,9.25-18.78,12.07-22,.17,4.49,9.49,4.86,8.93,14A8.113,8.113,0,0,0,46.62,22.264Z" fill="#444"/><path d="M45.56,17.374a13.1,13.1,0,0,0-3.94-8.25A13.551,13.551,0,0,0,32.12,5a13,13,0,0,0-9.64,3.92,12.741,12.741,0,0,0-3.57,8.87A15.859,15.859,0,0,0,18.58,20a17.19,17.19,0,0,0,.69,7c.08.32.15.63.25.95a25.866,25.866,0,0,1,1.24,6.63h0a.619.619,0,0,0,.61.63h0l4.88.11c-8.64-14,5.38-18.35,9.9-22.13.59,2,2.24,2.95,4.3,4.63l.22,5.8h0a.53.53,0,0,0,.549.51h0a.529.529,0,0,0,.51-.549h0c0-.34-.11-3,1-3.63,1.22.51,2.08,2.53,1.74,4.41-.3,1.64-1.31,3.08-2.86,3.19h0l-.55,3a8.5,8.5,0,0,1-3.23,4.77l5.41-.11h0a.63.63,0,0,0,.62-.64h0a25.512,25.512,0,0,1,.41-3.15c.35-.88.73-1.75,1.17-2.6C47.86,23.894,47.68,20.234,45.56,17.374Zm-9-4.69a9.435,9.435,0,0,0,1.2-2c-1.19,2-4.71,3.45-6.25,4.1a19,19,0,0,0-6.7,4.46,15,15,0,0,0-3.5,7.75c.24-10.26,6.86-11.31,12-16.7-3.27,2.13-13,5.22-12.87,14.06-.84-5.61-.69-8.46,6.19-14.37-2.91,1.44-4.83,2.75-6.06,4.31a12.587,12.587,0,0,1,2.92-4.37,13.441,13.441,0,0,1,8.71-3.46A12.38,12.38,0,0,1,40.93,9.9a12.578,12.578,0,0,1,3.68,6.41,17.416,17.416,0,0,0-4.9-3.3,8.877,8.877,0,0,0,1.19,1c1.84,1.37,5.09,4.83,5.19,8.19a11.155,11.155,0,0,1-.35,2.8C45.6,17.384,38.25,17.274,36.56,12.684Z" fill="#333"/><path d="M25.88,36.724s1.36,3.12,6.22,6.22l-3.55,4.44c-2.67-2.67-4.44-6.22-4.44-8Z" fill="#96c8e2" stroke="#343433" stroke-linejoin="round" stroke-width="1.5"/><path d="M38.32,36.724s-1.32,3.12-6.22,6.22l3.55,4.44c2.67-2.67,4.44-6.22,4.44-8Z" fill="#96c8e2" stroke="#343433" stroke-linejoin="round" stroke-width="1.5"/><path d="M45.33,51.734v-11a3.83,3.83,0,0,0-3.65-4H39.33" fill="none" stroke="#333" stroke-linejoin="round" stroke-width="1.5"/><path d="M18.1,46.224v-5.49a3.83,3.83,0,0,1,3.65-4H25.1" fill="none" stroke="#333" stroke-linejoin="round" stroke-width="1.5"/><path d="M48.83,55.234a3.5,3.5,0,1,1-3.5-3.5h0A3.5,3.5,0,0,1,48.83,55.234Z" fill="#e0ebee"/><circle cx="45.33" cy="55.234" fill="#333" r="1"/><path d="M48.83,55.234a3.5,3.5,0,1,1-3.5-3.5h0A3.5,3.5,0,0,1,48.83,55.234Z" fill="none" stroke="#333" stroke-linejoin="round" stroke-width="1.5"/><circle cx="16.1" cy="57.734" fill="#333" r="1"/><circle cx="20.1" cy="57.734" fill="#333" r="1"/><path d="M16.1,57.734c-2,0-3-.83-3-2,0-3,5-10,5-10s5,7,5,10c0,1.17-1,2-3,2" fill="none" stroke="#333" stroke-linejoin="round" stroke-width="1.5"/><path d="M33.06,30.394a2.311,2.311,0,0,1-.91.21c-.24,0-.26,0-.79-.21-.94-.33-1,.82-2.73,1.38l1.08.86a2.109,2.109,0,0,0,1.59.58h1.64a2.4,2.4,0,0,0,1.71-.63l1-.81C34,31.244,34,30.064,33.06,30.394Z" fill="#925140"/><line fill="none" stroke="#ddad8a" stroke-linecap="round" stroke-miterlimit="10" stroke-width="0.65" x1="28.81" x2="28.53" y1="31.524" y2="32.094"/><line fill="none" stroke="#ddad8a" stroke-linecap="round" stroke-miterlimit="10" stroke-width="0.65" x1="35.45" x2="35.74" y1="31.524" y2="32.094"/><path d="M30.14,28.524c1,0,1,.5,2,.5s1-.5,2-.5" fill="none" stroke="#674848" stroke-linecap="round" stroke-miterlimit="10" stroke-width="0.75"/><path d="M28.81,31.794c.87,0,.72-.31,2-.36a5.453,5.453,0,0,1,1.31.15,5.033,5.033,0,0,1,1.42-.15c1.33.07,1.1.45,1.9.37" fill="none" stroke="#753f3f" stroke-linecap="round" stroke-miterlimit="10" stroke-width="0.5"/><ellipse cx="27.65" cy="23.674" fill="#333" rx="0.81" ry="0.57"/><ellipse cx="36.62" cy="23.674" fill="#333" rx="0.81" ry="0.57"/></g></g></g></g></svg>