<?xml version="1.0" ?><svg id="outine" viewBox="0 0 48 48" xmlns="http://www.w3.org/2000/svg"><title/><path fill='#fff' d="M28.869,11.067H26.412V8.61a.75.75,0,0,0-.75-.75H22.338a.75.75,0,0,0-.75.75v2.457H19.131a.75.75,0,0,0-.75.75v3.324a.75.75,0,0,0,.75.75h2.457v2.458a.75.75,0,0,0,.75.75h3.324a.75.75,0,0,0,.75-.75V15.891h2.457a.75.75,0,0,0,.75-.75V11.817A.75.75,0,0,0,28.869,11.067Zm-.75,3.324H25.662a.75.75,0,0,0-.75.75V17.6H23.088V15.141a.75.75,0,0,0-.75-.75H19.881V12.567h2.457a.75.75,0,0,0,.75-.75V9.36h1.824v2.457a.75.75,0,0,0,.75.75h2.457Z"/><path fill='#fff' d="M2.219,18.234a.75.75,0,0,0-.75.75V47.25a.75.75,0,0,0,1.5,0V18.984A.75.75,0,0,0,2.219,18.234Z"/><path fill='#fff' d="M11.846,19.546H5.258a.75.75,0,0,0-.75.75v2.8a.75.75,0,0,0,.75.75h6.588a.75.75,0,0,0,.75-.75V20.3A.75.75,0,0,0,11.846,19.546Zm-.75,2.8H6.008v-1.3H11.1Z"/><path fill='#fff' d="M11.846,26.45H5.258a.75.75,0,0,0-.75.75V30a.75.75,0,0,0,.75.75h6.588A.75.75,0,0,0,12.6,30V27.2A.75.75,0,0,0,11.846,26.45Zm-.75,2.8H6.008v-1.3H11.1Z"/><path fill='#fff' d="M27.294,30.2H20.706a.75.75,0,0,0-.75.75v16.3a.75.75,0,0,0,1.5,0V31.7h5.088V47.25a.75.75,0,0,0,1.5,0v-16.3A.75.75,0,0,0,27.294,30.2Z"/><path fill='#fff' d="M11.846,33.354H5.258a.75.75,0,0,0-.75.75v2.8a.75.75,0,0,0,.75.75h6.588a.75.75,0,0,0,.75-.75V34.1A.75.75,0,0,0,11.846,33.354Zm-.75,2.8H6.008v-1.3H11.1Z"/><path fill='#fff' d="M11.846,40.257H5.258a.75.75,0,0,0-.75.75v2.8a.75.75,0,0,0,.75.75h6.588a.75.75,0,0,0,.75-.75v-2.8A.75.75,0,0,0,11.846,40.257Zm-.75,2.8H6.008v-1.3H11.1Z"/><path fill='#fff' d="M45.781,18.234a.75.75,0,0,0-.75.75V47.25a.75.75,0,0,0,1.5,0V18.984A.75.75,0,0,0,45.781,18.234Z"/><path fill='#fff' d="M47.25,12.729H33.358V6.12h2.363a.75.75,0,0,0,.75-.75V.75a.75.75,0,0,0-.75-.75H12.279a.75.75,0,0,0-.75.75V5.37a.75.75,0,0,0,.75.75h2.363v6.609H.75a.751.751,0,0,0-.75.743l-.031,3.39a.751.751,0,0,0,.75.757H14.642V47.25a.75.75,0,1,0,1.5,0V6.12h2.1a.75.75,0,0,0,0-1.5H13.029V1.5H34.971V4.62H20.959a.75.75,0,0,0,0,1.5h10.9V47.25a.75.75,0,0,0,1.5,0V17.619H47.25a.75.75,0,0,0,.75-.75v-3.39A.75.75,0,0,0,47.25,12.729ZM1.476,16.119l.017-1.89H14.642v1.89Zm45.024,0H33.358v-1.89H46.5Z"/><path fill='#fff' d="M42.742,19.546H36.154a.75.75,0,0,0-.75.75v2.8a.75.75,0,0,0,.75.75h6.588a.75.75,0,0,0,.75-.75V20.3A.75.75,0,0,0,42.742,19.546Zm-.75,2.8H36.9v-1.3h5.088Z"/><path fill='#fff' d="M42.742,26.45H36.154a.75.75,0,0,0-.75.75V30a.75.75,0,0,0,.75.75h6.588a.75.75,0,0,0,.75-.75V27.2A.75.75,0,0,0,42.742,26.45Zm-.75,2.8H36.9v-1.3h5.088Z"/><path fill='#fff' d="M42.742,33.354H36.154a.75.75,0,0,0-.75.75v2.8a.75.75,0,0,0,.75.75h6.588a.75.75,0,0,0,.75-.75V34.1A.75.75,0,0,0,42.742,33.354Zm-.75,2.8H36.9v-1.3h5.088Z"/><path fill='#fff' d="M42.742,40.257H36.154a.75.75,0,0,0-.75.75v2.8a.75.75,0,0,0,.75.75h6.588a.75.75,0,0,0,.75-.75v-2.8A.75.75,0,0,0,42.742,40.257Zm-.75,2.8H36.9v-1.3h5.088Z"/><path fill='#fff' d="M27.294,22.348H20.706a.75.75,0,0,0,0,1.5h6.588a.75.75,0,0,0,0-1.5Z"/><path fill='#fff' d="M27.294,26.273H20.706a.75.75,0,0,0,0,1.5h6.588a.75.75,0,0,0,0-1.5Z"/></svg>